<svg width="138" height="125" viewBox="0 0 138 125" fill="none" xmlns="http://www.w3.org/2000/svg">
<ellipse cx="69" cy="62.5" rx="69" ry="62.5" fill="url(#paint0_linear_66_6)"/>
<path d="M29.364 58.0938H23.1424C23.0288 57.2888 22.7968 56.5739 22.4464 55.9489C22.096 55.3144 21.6462 54.7746 21.0969 54.3295C20.5477 53.8845 19.9132 53.5436 19.1935 53.3068C18.4833 53.0701 17.7115 52.9517 16.8782 52.9517C15.3725 52.9517 14.061 53.3258 12.9435 54.0739C11.8261 54.8125 10.9596 55.892 10.3441 57.3125C9.72858 58.7235 9.42081 60.4375 9.42081 62.4545C9.42081 64.5284 9.72858 66.2708 10.3441 67.6818C10.9691 69.0928 11.8403 70.1581 12.9577 70.8778C14.0752 71.5975 15.3678 71.9574 16.8356 71.9574C17.6594 71.9574 18.4218 71.8485 19.1225 71.6307C19.8327 71.4129 20.4625 71.0956 21.0117 70.679C21.561 70.2528 22.0155 69.7367 22.3754 69.1307C22.7447 68.5246 23.0004 67.8333 23.1424 67.0568L29.364 67.0852C29.203 68.4205 28.8005 69.7083 28.1566 70.9489C27.5221 72.1799 26.6651 73.2831 25.5856 74.2585C24.5155 75.2244 23.2371 75.9915 21.7504 76.5597C20.2731 77.1184 18.6017 77.3977 16.7362 77.3977C14.1415 77.3977 11.8214 76.8106 9.77592 75.6364C7.73994 74.4621 6.13009 72.7623 4.94638 70.5369C3.77214 68.3116 3.18501 65.6174 3.18501 62.4545C3.18501 59.2822 3.78161 56.5833 4.97479 54.358C6.16797 52.1326 7.78729 50.4375 9.83274 49.2727C11.8782 48.0985 14.1793 47.5114 16.7362 47.5114C18.4218 47.5114 19.9843 47.7481 21.4237 48.2216C22.8725 48.6951 24.1557 49.3864 25.2731 50.2955C26.3905 51.1951 27.2996 52.2983 28.0004 53.6051C28.7106 54.9119 29.1651 56.4081 29.364 58.0938ZM41.4556 84.017V72.0994H43.43C44.1024 71.6165 44.7179 70.9347 45.2766 70.054C45.8353 69.1638 46.3136 67.9375 46.7113 66.375C47.109 64.803 47.3931 62.7481 47.5636 60.2102L48.3874 47.9091H67.6346V72.0994H70.8164V83.9886H64.9073V77H47.3647V84.017H41.4556ZM50.5323 72.0994H61.7255V52.9801H53.9272L53.4727 60.2102C53.3496 62.1326 53.146 63.8371 52.8619 65.3239C52.5872 66.8106 52.2511 68.1127 51.8533 69.2301C51.4651 70.3381 51.0247 71.2945 50.5323 72.0994ZM74.5558 77V47.9091H86.033C88.2395 47.9091 90.1192 48.3305 91.6722 49.1733C93.2253 50.0066 94.409 51.1667 95.2234 52.6534C96.0472 54.1307 96.4592 55.8352 96.4592 57.767C96.4592 59.6989 96.0425 61.4034 95.2092 62.8807C94.3758 64.358 93.1684 65.5085 91.587 66.3324C90.015 67.1562 88.1116 67.5682 85.8768 67.5682H78.5614V62.6392H84.8825C86.0662 62.6392 87.0415 62.4356 87.8086 62.0284C88.5851 61.6117 89.1628 61.0388 89.5415 60.3097C89.9298 59.571 90.1239 58.7235 90.1239 57.767C90.1239 56.8011 89.9298 55.9583 89.5415 55.2386C89.1628 54.5095 88.5851 53.946 87.8086 53.5483C87.0321 53.1411 86.0472 52.9375 84.854 52.9375H80.7063V77H74.5558ZM107.571 47.9091L107.017 68.2784H101.818L101.25 47.9091H107.571ZM104.417 77.3693C103.48 77.3693 102.675 77.0379 102.002 76.375C101.33 75.7027 100.999 74.8977 101.008 73.9602C100.999 73.0322 101.33 72.2367 102.002 71.5739C102.675 70.911 103.48 70.5795 104.417 70.5795C105.317 70.5795 106.108 70.911 106.789 71.5739C107.471 72.2367 107.817 73.0322 107.826 73.9602C107.817 74.5852 107.651 75.1581 107.329 75.679C107.017 76.1903 106.605 76.6023 106.093 76.9148C105.582 77.2178 105.023 77.3693 104.417 77.3693ZM120.539 47.9091L119.985 68.2784H114.787L114.218 47.9091H120.539ZM117.386 77.3693C116.449 77.3693 115.644 77.0379 114.971 76.375C114.299 75.7027 113.967 74.8977 113.977 73.9602C113.967 73.0322 114.299 72.2367 114.971 71.5739C115.644 70.911 116.449 70.5795 117.386 70.5795C118.286 70.5795 119.076 70.911 119.758 71.5739C120.44 72.2367 120.786 73.0322 120.795 73.9602C120.786 74.5852 120.62 75.1581 120.298 75.679C119.985 76.1903 119.574 76.6023 119.062 76.9148C118.551 77.2178 117.992 77.3693 117.386 77.3693ZM133.508 47.9091L132.954 68.2784H127.755L127.187 47.9091H133.508ZM130.355 77.3693C129.417 77.3693 128.612 77.0379 127.94 76.375C127.268 75.7027 126.936 74.8977 126.946 73.9602C126.936 73.0322 127.268 72.2367 127.94 71.5739C128.612 70.911 129.417 70.5795 130.355 70.5795C131.254 70.5795 132.045 70.911 132.727 71.5739C133.409 72.2367 133.754 73.0322 133.764 73.9602C133.754 74.5852 133.589 75.1581 133.267 75.679C132.954 76.1903 132.542 76.6023 132.031 76.9148C131.52 77.2178 130.961 77.3693 130.355 77.3693Z" fill="#FDBF1E"/>
<defs>
<linearGradient id="paint0_linear_66_6" x1="69.2388" y1="8.72093" x2="69.2387" y2="111.919" gradientUnits="userSpaceOnUse">
<stop stop-color="#E41D54"/>
<stop offset="1" stop-color="#58B3FE"/>
</linearGradient>
</defs>
</svg>
